<svg xmlns="http://www.w3.org/2000/svg" version="1.1" xmlns:xlink="http://www.w3.org/1999/xlink" xmlns:svgjs="http://svgjs.dev/svgjs" viewBox="0 0 2.7179998007998822 3.7322966913599007"><g transform="matrix(1,0,0,1,0.26475099903275345,2.4100456923271474)"><g><path d=" M 0.79425 0.06674999999999986 Q 0.9195 0.13349999999999984 0.987 0.25349999999999984 Q 1.0545 0.37349999999999983 1.0545 0.5279999999999999 Q 1.0545 0.6809999999999998 0.9862500000000001 0.8009999999999999 Q 0.918 0.9209999999999998 0.7927500000000001 0.9892499999999999 Q 0.6675 1.0574999999999999 0.5025000000000001 1.0574999999999999 L 0.084 1.0574999999999999 L 0.084 -2.220446049250313e-16 L 0.5025000000000001 -2.220446049250313e-16 Q 0.669 -2.220446049250313e-16 0.79425 0.06674999999999986 M 0.6825 0.7274999999999998 Q 0.756 0.6569999999999998 0.756 0.5279999999999999 Q 0.756 0.39749999999999985 0.6825 0.3262499999999998 Q 0.609 0.2549999999999999 0.48 0.2549999999999999 L 0.378 0.2549999999999999 L 0.378 0.7979999999999998 L 0.48 0.7979999999999998 Q 0.609 0.7979999999999998 0.6825 0.7274999999999998 M 1.8089780273437501 1.0574999999999999 L 1.47747802734375 0.5939999999999999 L 1.47747802734375 1.0574999999999999 L 1.1834780273437502 1.0574999999999999 L 1.1834780273437502 -2.220446049250313e-16 L 1.47747802734375 -2.220446049250313e-16 L 1.47747802734375 0.45599999999999985 L 1.80597802734375 -2.220446049250313e-16 L 2.1449780273437504 -2.220446049250313e-16 L 1.7564780273437501 0.5129999999999999 L 2.1644780273437503 1.0574999999999999 L 1.8089780273437501 1.0574999999999999" fill="#ffffff" fill-rule="nonzero"></path></g><g></g><g clip-path="url(#SvgjsClipPath1006)"><g clip-path="url(#a1a728b99-aea9-4d66-a330-f0966c033bb725cc5783-35d4-42cb-a410-2714a5a8d43b)"><path d=" M 0.3124430627966976 -0.2500000000000002 C 0.22099096915603023 -0.2500000000000002 0.1466015547199906 -0.32438941443603997 0.1466015547199906 -0.4158415080767073 L 0.1466015547199906 -1.979453185217687 C 0.1466015547199906 -2.070905278858355 0.22099096915603025 -2.1452946932943946 0.3124430627966976 -2.1452946932943946 L 1.876054739937678 -2.1452946932943946 C 1.967506833578345 -2.1452946932943946 2.0418962480143845 -2.070905278858355 2.0418962480143845 -1.979453185217687 L 2.0418962480143845 -0.4158415080767073 C 2.0418962480143845 -0.32438941443603997 1.967506833578345 -0.2500000000000002 1.876054739937678 -0.2500000000000002 Z" fill="#ffffff" transform="matrix(1,0,0,1,0,0)" fill-rule="nonzero"></path></g><g clip-path="url(#a1a728b99-aea9-4d66-a330-f0966c033bb725cc5783-35d4-42cb-a410-2714a5a8d43b)"><path d=" M 1.672849347936956 -0.6252178218294333 C 1.643122583883568 -0.6558146375136524 1.4018443770003766 -0.7088072266581475 1.259494262956103 -0.7286411814276439 C 1.2181345863571615 -0.7344093014987079 0.9703793284444514 -0.7344093014987079 0.9290035397782721 -0.7286411814276439 C 0.7866534257339987 -0.7088072266581475 0.5453913309180451 -0.6558146375136524 0.5156645668646569 -0.6252178218294333 C 0.4605451848447973 -0.5685033451530503 0.44111403175624125 -0.45629890891034286 0.4402600921926479 -0.32957750008654996 L 1.7482538226089648 -0.32957750008654996 C 1.7473837709781341 -0.45629890891034286 1.7279687299568154 -0.5685033451530503 1.672849347936956 -0.6252178218294333" fill="#393536" transform="matrix(1,0,0,1,0,0)" fill-rule="nonzero"></path></g><g clip-path="url(#a1a728b99-aea9-4d66-a330-f0966c033bb725cc5783-35d4-42cb-a410-2714a5a8d43b)"><path d=" M 1.2843551827037334 -0.7249837421647065 C 1.2803593900288064 -0.7255960007197357 1.2687425895504905 -0.7327980947749468 1.2662291070614236 -0.7359399478862805 C 1.222098154897613 -0.7912204505785163 1.2328287916778606 -1.0230569860604688 1.2328287916778606 -1.0230569860604688 L 0.9556851231237521 -1.0230569860604688 C 0.9556851231237521 -1.0230569860604688 0.9664157599039996 -0.7912204505785163 0.9222686956729516 -0.7359399478862805 C 0.9197713252511223 -0.7327980947749468 0.9081545247728063 -0.7255960007197357 0.9041426200306417 -0.7249837421647065 C 0.9040620596944537 -0.7235336561133217 0.9039814993582657 -0.722083570061937 0.9039814993582657 -0.7206334840105522 C 0.9039814993582657 -0.6533172670918228 0.9891659988435031 -0.5987456953580419 1.0942489013671874 -0.5987456953580419 C 1.199331803890872 -0.5987456953580419 1.284532415443347 -0.6533172670918228 1.284532415443347 -0.7206334840105522 C 1.284532415443347 -0.722083570061937 1.2844357430399214 -0.7235336561133217 1.2843551827037334 -0.7249837421647065" fill="#f6c47c" transform="matrix(1,0,0,1,0,0)" fill-rule="nonzero"></path></g><g clip-path="url(#a1a728b99-aea9-4d66-a330-f0966c033bb725cc5783-35d4-42cb-a410-2714a5a8d43b)"><path d=" M 0.7878940549112946 -1.2741313298241261 C 0.7945322266131895 -1.2219282319742737 0.8079374665548799 -1.1634736520362292 0.7890863478868777 -1.1609279454126868 C 0.7702352292188754 -1.1583661267219072 0.726265397727441 -1.2126637933126487 0.7196272260255463 -1.2648668911625012 C 0.7129890543236516 -1.3170699890123534 0.7325491039501085 -1.345556123888446 0.7514002226181108 -1.348101830511988 C 0.770251341286113 -1.3506636492027677 0.7812558832093998 -1.3263344276739786 0.7878940549112946 -1.2741313298241261" fill="#f6c47c" transform="matrix(1,0,0,1,0,0)" fill-rule="nonzero"></path></g><g clip-path="url(#a1a728b99-aea9-4d66-a330-f0966c033bb725cc5783-35d4-42cb-a410-2714a5a8d43b)"><path d=" M 1.4006037478230806 -1.2741313298241261 C 1.3939655761211858 -1.2219282319742737 1.3805603361794954 -1.1634736520362292 1.3994114548474976 -1.1609279454126868 C 1.4182625735155 -1.1583661267219072 1.4622324050069342 -1.2126637933126487 1.468870576708829 -1.2648668911625012 C 1.4755087484107237 -1.3170699890123534 1.4559486987842667 -1.345556123888446 1.4370975801162647 -1.348101830511988 C 1.4182464614482624 -1.3506636492027677 1.4072419195249755 -1.3263344276739786 1.4006037478230806 -1.2741313298241261" fill="#f6c47c" transform="matrix(1,0,0,1,0,0)" fill-rule="nonzero"></path></g><g clip-path="url(#a1a728b99-aea9-4d66-a330-f0966c033bb725cc5783-35d4-42cb-a410-2714a5a8d43b)"><path d=" M 1.0942489013671877 -1.6741778472667141 C 0.8993734481283097 -1.6741778472667141 0.7413785167963182 -1.5552707910531613 0.7413785167963182 -1.3148465237335634 C 0.7413785167963182 -1.2203492493849881 0.794226097335675 -1.156432678653394 0.8083402682358202 -1.050189707288602 C 0.8165896466614759 -0.9881582484238083 0.8753342438097974 -0.9456062788492834 0.9185306960738266 -0.9052938866207862 C 0.947500192967047 -0.8782256136616036 0.9785803706683944 -0.8498200391216995 1.0115778843710173 -0.8299216360832524 C 1.0246341031622315 -0.8220455232597341 1.039590902371149 -0.8178787873907323 1.0548387849039966 -0.8178698097895214 L 1.1336590178303787 -0.8178698097895214 C 1.1489171455043943 -0.8178698097895214 1.1638691439008952 -0.8220589472712996 1.1769199183633583 -0.8299216360832524 C 1.209917432065981 -0.8498200391216995 1.2409976097673283 -0.8782256136616036 1.269967106660549 -0.9052938866207862 C 1.313163558924578 -0.9456062788492834 1.3719081560728994 -0.9881582484238083 1.3801575344985553 -1.050189707288602 C 1.3942717053987006 -1.156432678653394 1.4471192859380573 -1.2203492493849881 1.4471192859380573 -1.3148465237335636 C 1.4471192859380573 -1.5552707910531613 1.2891243546060658 -1.6741778472667141 1.0942489013671877 -1.6741778472667141" fill="#fcce8b" transform="matrix(1,0,0,1,0,0)" fill-rule="nonzero"></path></g><g clip-path="url(#a1a728b99-aea9-4d66-a330-f0966c033bb725cc5783-35d4-42cb-a410-2714a5a8d43b)"><path d=" M 1.1247651567152186 -0.9883032570289465 C 1.121011045048856 -0.9890766362563519 1.1009998575397457 -0.9859992314139685 1.0971007372682444 -0.9859186710777805 L 1.091397065466131 -0.9859186710777805 C 1.0874979451946296 -0.9859992314139685 1.0674867576855196 -0.9890766362563519 1.0637326460191567 -0.9883032570289465 C 1.0335547440831157 -0.982067887007992 1.0116906688416805 -0.9791838269724602 1.0013144975406605 -0.9778143012572633 C 0.9985109978413165 -0.9774437237107982 0.9978020668828617 -0.9734318189686337 1.0002833252374534 -0.9719817329172489 C 1.01718495069368 -0.9623271077389812 1.0354069405087158 -0.9551946398757234 1.054371534954106 -0.9508104765670311 C 1.0602202153613578 -0.9495053991207847 1.0754783430353734 -0.9463796580766886 1.0901081000871224 -0.9486514595571913 C 1.0923799015676252 -0.9490059250364187 1.0961017890995128 -0.9490059250364187 1.0983735905800156 -0.9486514595571913 C 1.113019459699002 -0.9463796580766886 1.1282775873730175 -0.9495053991207847 1.1341101557130318 -0.9508104765670311 C 1.1579721272919306 -0.9561435708226795 1.1780960992717038 -0.9661169404427592 1.1881983654296844 -0.9719817329172489 C 1.1906957358515138 -0.9734318189686337 1.1899706928258216 -0.9774437237107982 1.1871671931264773 -0.9778143012572633 C 1.1767910218254576 -0.9791838269724602 1.1549269465840224 -0.982067887007992 1.1247651567152186 -0.9883032570289465" fill="#f3b267" transform="matrix(1,0,0,1,0,0)" fill-rule="nonzero"></path></g><g clip-path="url(#a1a728b99-aea9-4d66-a330-f0966c033bb725cc5783-35d4-42cb-a410-2714a5a8d43b)"><path d=" M 1.0942489013671877 -0.9198269712691094 C 1.1169024679032657 -0.9198269712691094 1.1390565603549776 -0.9168784629646269 1.1604372735792845 -0.9142844201393718 C 1.1693633588289196 -0.9131726874999768 1.1713612551663832 -0.9157506182579942 1.1626124026563616 -0.9171362560404286 C 1.1416183790457575 -0.9203425574207127 1.118497562559789 -0.9238227639440362 1.0942489013671877 -0.9238227639440362 C 1.069984128107349 -0.9238227639440362 1.046879423688618 -0.9203425574207127 1.0258854000780138 -0.9171362560404286 C 1.017136547567992 -0.9157506182579942 1.0191344439054557 -0.9131726874999768 1.0280605291550908 -0.9142844201393718 C 1.0494412423793977 -0.9168784629646269 1.0715953348311098 -0.9198269712691094 1.0942489013671877 -0.9198269712691094" fill="#f6c47c" transform="matrix(1,0,0,1,0,0)" fill-rule="nonzero"></path></g><g clip-path="url(#a1a728b99-aea9-4d66-a330-f0966c033bb725cc5783-35d4-42cb-a410-2714a5a8d43b)"><path d=" M 0.9539127957276153 -1.3383218056987594 C 0.9329283039963613 -1.340838540326076 0.9117491330582816 -1.3413133854324584 0.8906729318200005 -1.339739667615669 C 0.8728046492534929 -1.3383862539677098 0.8544207805353812 -1.3356955387390292 0.836520273834398 -1.3364850300336721 C 0.8167668794010895 -1.3373550816645028 0.802910501576746 -1.3381445729591457 0.794387218008051 -1.3514853646318858 C 0.789940287450471 -1.358429665611295 0.8731752267999578 -1.3686769403744143 0.907268361074738 -1.3675168715333066 C 0.9241860316742273 -1.36695294917999 0.9435205123593577 -1.3632310616481025 0.964224518759685 -1.365970113078496 C 0.9719583110337373 -1.3669851733144656 1.0075820916960903 -1.3510825629509455 1.0109978499504633 -1.3485207442601657 C 1.01344688417058 -1.3466839685950784 1.0232107969165707 -1.3298307462645396 1.013769125515332 -1.3322153322157058 C 1.000379997640879 -1.335614978402841 0.9679141821570975 -1.3366622627732858 0.9539127957276153 -1.3383218056987594" fill="#74491a" transform="matrix(1,0,0,1,0,0)" fill-rule="nonzero"></path></g><g clip-path="url(#a1a728b99-aea9-4d66-a330-f0966c033bb725cc5783-35d4-42cb-a410-2714a5a8d43b)"><path d=" M 1.2345850070067599 -1.3383218056987594 C 1.2555306944156515 -1.3408191761205885 1.276879183505483 -1.3413347622721923 1.2978248709143743 -1.339739667615669 C 1.3156931534808824 -1.3383862539677098 1.3340770221989942 -1.3356955387390292 1.3519775288999774 -1.3364850300336721 C 1.3717309233332857 -1.3373550816645028 1.3855873011576294 -1.3381445729591457 1.3941105847263242 -1.3514853646318858 C 1.3985575152839043 -1.358429665611295 1.3153225759344174 -1.3686769403744143 1.2812294416596373 -1.3675168715333066 C 1.264311771060148 -1.36695294917999 1.2449772903750176 -1.3632310616481025 1.2242732839746904 -1.365970113078496 C 1.216539491700638 -1.3669851733144656 1.180915711038285 -1.3510825629509455 1.177499952783912 -1.3485207442601657 C 1.1750509185637954 -1.3466839685950784 1.1652870058178046 -1.3298307462645396 1.1747286772190433 -1.3322153322157058 C 1.1881178050934964 -1.335614978402841 1.2205836205772778 -1.3366622627732858 1.2345850070067599 -1.3383218056987594" fill="#74491a" transform="matrix(1,0,0,1,0,0)" fill-rule="nonzero"></path></g><g clip-path="url(#a1a728b99-aea9-4d66-a330-f0966c033bb725cc5783-35d4-42cb-a410-2714a5a8d43b)"><path d=" M 1.1302110354415302 -1.0474828799926836 L 1.0582867672928449 -1.0474828799926836 C 1.0504545852834308 -1.0475005999294587 1.0441097559932868 -1.053845429219603 1.0440920360565116 -1.061677611229017 C 1.0440920360565116 -1.0694919638392573 1.0530664575078597 -1.0681546622585356 1.0565466640311831 -1.0645294471300737 C 1.0697424470987849 -1.0507536296419182 1.1444057666778638 -1.0694919638392573 1.1444057666778638 -1.061677611229017 C 1.144388046741088 -1.0538454292196022 1.1380432174509436 -1.0475005999294584 1.1302110354415296 -1.0474828799926836" fill="#ecbc7a" transform="matrix(1,0,0,1,0,0)" fill-rule="nonzero"></path></g><g clip-path="url(#a1a728b99-aea9-4d66-a330-f0966c033bb725cc5783-35d4-42cb-a410-2714a5a8d43b)"><path d=" M 0.9864108353458722 -1.2524928235240176 C 0.9840745855964189 -1.2262623780611905 0.9555240024513761 -1.2072018025190991 0.9226553852866544 -1.2099086298150175 C 0.8897867681219325 -1.2126154571109358 0.8650225207777278 -1.236074627008894 0.8673748825944186 -1.2622889604044834 C 0.869711132343872 -1.2885194058673106 0.8982617154889148 -1.3075799814094018 0.9311303326536365 -1.3048731541134835 C 0.9639989498183584 -1.3021663268175652 0.9887470850953255 -1.2787232689868444 0.9864108353458722 -1.2524928235240176" fill="#fafdf4" transform="matrix(1,0,0,1,0,0)" fill-rule="nonzero"></path></g><g clip-path="url(#a1a728b99-aea9-4d66-a330-f0966c033bb725cc5783-35d4-42cb-a410-2714a5a8d43b)"><path d=" M 0.9540739163999915 -1.257374779897013 C 0.9540739163999915 -1.2415527298696811 0.9418931935683593 -1.2287275243485447 0.926876746902908 -1.2287275243485447 C 0.9118603002374565 -1.2287275243485447 0.8996956894730619 -1.2415527298696811 0.8996956894730619 -1.257374779897013 C 0.8996956894730619 -1.2731968299243448 0.9118603002374565 -1.2860220354454814 0.926876746902908 -1.2860220354454814 C 0.9418931935683593 -1.2860220354454814 0.9540739163999915 -1.2731968299243448 0.9540739163999915 -1.257374779897013" fill="#523a29" transform="matrix(1,0,0,1,0,0)" fill-rule="nonzero"></path></g><g clip-path="url(#a1a728b99-aea9-4d66-a330-f0966c033bb725cc5783-35d4-42cb-a410-2714a5a8d43b)"><path d=" M 1.3211390322071943 -1.262272848337246 C 1.3234752819566475 -1.236042402874419 1.2987271466796804 -1.2125993450436983 1.2658585295149585 -1.20989251774778 C 1.2329899123502368 -1.2071856904518616 1.2044393292051938 -1.2262462659939528 1.2021030794557408 -1.2524767114567799 C 1.1997507176390498 -1.2786910448523692 1.2245149649832545 -1.3021502147503279 1.2573835821479764 -1.3048570420462462 C 1.2902521993126983 -1.307563869342164 1.3188027824577409 -1.2885032938000731 1.3211390322071943 -1.262272848337246" fill="#fafdf4" transform="matrix(1,0,0,1,0,0)" fill-rule="nonzero"></path></g><g clip-path="url(#a1a728b99-aea9-4d66-a330-f0966c033bb725cc5783-35d4-42cb-a410-2714a5a8d43b)"><path d=" M 1.2888021132613134 -1.257374779897013 C 1.2888021132613134 -1.2415527298696811 1.2766213904296813 -1.2287275243485447 1.26160494376423 -1.2287275243485447 C 1.2465884970987784 -1.2287275243485447 1.234423886334384 -1.2415527298696811 1.234423886334384 -1.257374779897013 C 1.234423886334384 -1.2731968299243448 1.2465884970987784 -1.2860220354454814 1.26160494376423 -1.2860220354454814 C 1.2766213904296813 -1.2860220354454814 1.2888021132613134 -1.2731968299243448 1.2888021132613134 -1.257374779897013" fill="#523a29" transform="matrix(1,0,0,1,0,0)" fill-rule="nonzero"></path></g><g clip-path="url(#SvgjsClipPath100025cc5783-35d4-42cb-a410-2714a5a8d43b)"><path d=" M 1.3819087820619043 -1.0671255327691602 L 1.3894008933273923 -1.0658043432556765 L 1.45127123151981 -1.3366159693854045 L 1.4437791202543218 -1.3379371588988884 Z" fill="#e8f8fd" transform="matrix(1,0,0,1,0,0)" fill-rule="nonzero"></path></g><g clip-path="url(#SvgjsClipPath100025cc5783-35d4-42cb-a410-2714a5a8d43b)"><path d=" M 0.8065977869479295 -1.0671255327691602 L 0.7991056756824414 -1.0658043432556765 L 0.7372353374900238 -1.3366159693854045 L 0.7447274487555119 -1.3379371588988884 Z" fill="#e8f8fd" transform="matrix(1,0,0,1,0,0)" fill-rule="nonzero"></path></g><g clip-path="url(#b1a728b99-aea9-4d66-a330-f0966c033bb725cc5783-35d4-42cb-a410-2714a5a8d43b)"><path d=" M 1.4023599631519799 -1.1654232121719799 C 1.4023599631519799 -1.1654232121719799 1.3450654520550431 -1.1622652469934085 1.284532415443347 -1.1695801255192828 C 1.2286396541960822 -1.1763310816918409 1.197269459284458 -1.180939132921797 1.151188946984897 -1.2018687082634507 C 1.1401521809271349 -1.2068795611743472 1.1203665623593513 -1.2133727242711037 1.1073480120313635 -1.2134210604728164 L 1.0811659027702492 -1.2134210604728164 C 1.0681473524422613 -1.2133727242711037 1.048361733874478 -1.2068795611743472 1.0373249678167158 -1.2018687082634507 C 0.9912444555171547 -1.180939132921797 0.9598581485382928 -1.1763310816918409 0.9039814993582657 -1.1695801255192828 C 0.8434484627465696 -1.1622652469934085 0.7861539516496328 -1.1654232121719799 0.7861539516496328 -1.1654232121719799 C 0.7824965123866957 -1.1654232121719799 0.7793385472081242 -1.1645370484739113 0.7767445043828692 -1.1629741779518632 C 0.7847360897327232 -1.1287038109374696 0.7966912436230289 -1.0925805561907507 0.8024271395596176 -1.049400215993959 C 0.8097097939510167 -0.9946675235878022 0.8544046684681434 -0.9547740451074829 0.8938631211330474 -0.9195691781933077 C 0.9010813272554962 -0.9131243512982643 0.9078967316970047 -0.9070339898824482 0.9144543430627112 -0.9009114043321567 C 0.9453734000916826 -0.8720385798423618 0.975825207170763 -0.8445030569332885 1.0085004795286339 -0.8247979987016929 C 1.022485743792409 -0.8163626511836037 1.0385065274656222 -0.8119006735333105 1.0548387849039964 -0.8118922328443685 L 1.1336590178303787 -0.8118922328443685 C 1.1499644298748386 -0.8118922328443683 1.1659959367762593 -0.8163552754691861 1.180013435272979 -0.8247979987016929 C 1.2126887076308495 -0.8445030569332885 1.2431405147099301 -0.8720385798423618 1.2740434596716639 -0.9009114043321567 C 1.280617183104608 -0.907033989882448 1.2874325875461166 -0.9131243512982643 1.2946507936685654 -0.9195691781933077 C 1.3340931342662317 -0.9547740451074829 1.3788041208505961 -0.9946675235878022 1.3860867752419952 -1.049400215993959 C 1.391822671178584 -1.0925805561907507 1.4037778250688895 -1.1287038109374696 1.411753298351506 -1.1629741779518632 C 1.40890688596126 -1.1646385810288593 1.4056566830203692 -1.1654859752775992 1.4023599631519799 -1.1654232121719799" fill="#c8edf9" transform="matrix(1,0,0,1,0,0)" fill-rule="nonzero"></path></g><g clip-path="url(#b1a728b99-aea9-4d66-a330-f0966c033bb725cc5783-35d4-42cb-a410-2714a5a8d43b)"><path d=" M 1.2075328461148147 -1.1794890468704122 C 1.1883433740348226 -1.1841776584365564 1.1705556518045026 -1.190461364659224 1.1501899988161652 -1.1997096912536112 C 1.1378481553121569 -1.2053166906522992 1.1191581573165306 -1.211004250387175 1.1073157878968882 -1.211052586588888 L 1.0811659027702492 -1.211052586588888 C 1.0693396454178443 -1.211004250387175 1.050649647422218 -1.2053166906522992 1.0382916918509721 -1.1997096912536112 C 1.0179260388626346 -1.190461364659224 1.0001383166323148 -1.1841776584365564 0.9809488445523226 -1.1794890468704122 C 0.9796764431273359 -1.17918639343425 0.9788902113242014 -1.1779096683961323 0.9791926292234233 -1.1766372109693555 L 0.9797404395095018 -1.1743331853543775 C 0.9803526980645311 -1.17175525459636 0.9829628529570237 -1.1701440478725993 0.9855407837150411 -1.1707885305621035 C 1.0044402385847562 -1.175557702464436 1.0221312884116507 -1.1818736328215784 1.0422391483241866 -1.1910091749453025 C 1.0535498195249877 -1.1961328123268622 1.0711925331501693 -1.2014659065825106 1.0811981269047244 -1.2014981307169859 C 1.0898986357536418 -1.2015142427980368 1.098599166980468 -1.2015142427980368 1.1072996758293847 -1.2014981307169856 C 1.117289157516968 -1.2014659065825106 1.1349479832093872 -1.1961328123268622 1.146242542342951 -1.1910091749453025 C 1.1663504022554867 -1.1818736328215784 1.1840575641496187 -1.175557702464436 1.2029570190193337 -1.1707885305621035 C 1.2055349497773513 -1.1701440478725993 1.208145104669844 -1.17175525459636 1.208757363224873 -1.1743331853543775 L 1.209289061443714 -1.1766372109693555 C 1.2095914793429359 -1.1779096683961323 1.2088052475398015 -1.17918639343425 1.2075328461148147 -1.1794890468704122" fill="#e8f8fd" transform="matrix(1,0,0,1,0,0)" fill-rule="nonzero"></path></g><g clip-path="url(#b1a728b99-aea9-4d66-a330-f0966c033bb725cc5783-35d4-42cb-a410-2714a5a8d43b)"><path d=" M 1.2946507936685656 -0.9195691781933077 L 1.2917989577675089 -0.9170234715697654 C 1.25789916829958 -0.9130276788948386 1.22717345607746 -0.9125443168777101 1.201764726043751 -0.9141555236014711 C 1.2339888605189686 -0.9159278509976081 1.2676791931128086 -0.9196497385294957 1.3017723273875885 -0.925933444752163 L 1.2946507936685656 -0.9195691781933077" fill="#a2e1f9" transform="matrix(1,0,0,1,0,0)" fill-rule="nonzero"></path></g><g clip-path="url(#b1a728b99-aea9-4d66-a330-f0966c033bb725cc5783-35d4-42cb-a410-2714a5a8d43b)"><path d=" M 1.3703452855508516 -1.0034969364340116 C 1.33172541213632 -0.99945567526122 1.2929520751548766 -0.9970474602372792 1.254128944565981 -0.9962787303115632 C 1.2940868713152491 -1.0040608587873279 1.3346409445523104 -1.0089267030930857 1.3759200608150641 -1.0145498145590113 C 1.3742235269078438 -1.0107861542699672 1.3723634977602717 -1.0070983508155327 1.3703452855508516 -1.003496936434012" fill="#a2e1f9" transform="matrix(1,0,0,1,0,0)" fill-rule="nonzero"></path></g><g clip-path="url(#b1a728b99-aea9-4d66-a330-f0966c033bb725cc5783-35d4-42cb-a410-2714a5a8d43b)"><path d=" M 0.8938470090658098 -0.9195691781933077 L 0.8966988449668666 -0.9170234715697654 C 0.9305986344347954 -0.9130276788948386 0.9613243466569154 -0.9125443168777101 0.9867330766906245 -0.9141555236014711 C 0.9544928301481692 -0.9159278509976081 0.9208186096215668 -0.9196497385294957 0.8867254753467867 -0.925933444752163 L 0.8938470090658098 -0.9195691781933077" fill="#a2e1f9" transform="matrix(1,0,0,1,0,0)" fill-rule="nonzero"></path></g><g clip-path="url(#b1a728b99-aea9-4d66-a330-f0966c033bb725cc5783-35d4-42cb-a410-2714a5a8d43b)"><path d=" M 0.8181525171835239 -1.0034969364340116 C 0.8567723905980551 -0.99945567526122 0.8955457275794986 -0.9970474602372792 0.9343688581683943 -0.9962787303115632 C 0.8944109314191262 -1.0040608587873279 0.8538568581820649 -1.0089267030930857 0.8125777419193113 -1.0145498145590113 C 0.8142695089792602 -1.010779590825411 0.8161385087788228 -1.007106039495236 0.8181525171835239 -1.0034969364340116" fill="#a2e1f9" transform="matrix(1,0,0,1,0,0)" fill-rule="nonzero"></path></g><g clip-path="url(#b1a728b99-aea9-4d66-a330-f0966c033bb725cc5783-35d4-42cb-a410-2714a5a8d43b)"><path d=" M 1.4490043978048575 -1.3163771701211364 L 1.4123816689737727 -1.2946258793503644 C 1.4120535156925706 -1.2992759436329389 1.4100700155900505 -1.303654505818906 1.4067907816423224 -1.3069677228543726 C 1.402086058008941 -1.3118013430256554 1.394996748424393 -1.3145726185905242 1.3873274044192911 -1.3145726185905242 L 1.1608884114619376 -1.3145726185905242 C 1.1536702053394887 -1.3145726185905242 1.1469836974358811 -1.3118013430256554 1.1425528789455388 -1.3069838349216103 C 1.1387690258548797 -1.3029173145388373 1.136889140006911 -1.29743577823448 1.1373809053622663 -1.2919029399872086 L 1.1376064743035927 -1.289421681632617 C 1.1088928562771023 -1.2941262796970605 1.079604946457273 -1.2941262796970605 1.0508913284307826 -1.289421681632617 L 1.051116897372109 -1.2919029399872086 C 1.0516002593892373 -1.2974616031841837 1.0497634837241496 -1.3028108095070696 1.0459449237888365 -1.3069838349216103 C 1.0415141052984942 -1.3118013430256554 1.0348275973948864 -1.3145726185905242 1.0276093912724378 -1.3145726185905242 L 0.8011703983150842 -1.3145726185905242 C 0.7935010543099824 -1.3145726185905242 0.7864117447254346 -1.3118013430256554 0.7817231331592904 -1.3069677228543726 C 0.7784379911364169 -1.3036569220263354 0.7764486488865051 -1.2992780824762424 0.7761161337606025 -1.2946258793503644 L 0.7394934049295179 -1.3163771701211364 C 0.738689586005274 -1.3165509973309724 0.7378529255473539 -1.3162983586483 0.7372796486997335 -1.3157087024621759 C 0.7367063718521129 -1.315119046276052 0.736477396609026 -1.314275602523403 0.7366737931629365 -1.3134769980183667 L 0.7396384135346564 -1.301151266581596 C 0.7398468657450181 -1.3002993316305993 0.7405005055280476 -1.2996271926084277 0.7413462926618429 -1.2993950512526966 L 0.7793868834098372 -1.2767898209183315 L 0.7979640969348001 -1.1977279069833853 C 0.8002842346170158 -1.1878350976994936 0.811594905817817 -1.1803752105684806 0.8242751027338153 -1.1803752105684806 L 0.8255801801800616 -1.180407434702956 L 1.0195533576536335 -1.1882701235149091 C 1.032007985628305 -1.1887857096665124 1.0428675189464536 -1.197582898378247 1.0437697947117597 -1.2078946214103166 L 1.050053500934427 -1.279706105088339 C 1.0793186920225701 -1.28460720033239 1.109195222779043 -1.28460720033239 1.1384604138671863 -1.279706105088339 L 1.144728008022616 -1.2078946214103166 C 1.1456302837879222 -1.197582898378247 1.1564898171060705 -1.1887857096665124 1.168944445080742 -1.1882701235149091 L 1.3629337346215515 -1.180407434702956 L 1.3642227000005602 -1.1803752105684806 C 1.3769028969165582 -1.1803752105684806 1.3882135681173595 -1.1878350976994936 1.390549817866813 -1.1977279069833853 L 1.4091270313917759 -1.2767898209183315 L 1.4471515100725325 -1.2993950512526966 C 1.447997297206328 -1.2996271926084277 1.4486509369893572 -1.3002993316305993 1.448859389199719 -1.301151266581596 L 1.4518401216386767 -1.3134769980183667 C 1.4520201321821158 -1.314276123300501 1.4517831060371158 -1.3151120371660239 1.4512104245587276 -1.3156977341325575 C 1.4506377430803394 -1.3162834310990907 1.4498073660087498 -1.3165391796141706 1.4490043978048575 -1.3163771701211364 M 1.0302517702994058 -1.2081040782844052 C 1.0298811927529408 -1.2036893718613006 1.0251120208506084 -1.1999352601949378 1.019617805922584 -1.1997096912536112 L 0.8250645940284582 -1.1917825541727078 C 0.8185230947299891 -1.1915086490296685 0.8123038367762719 -1.1952144244943184 0.811192104136877 -1.2000319325983635 L 0.7901336322573224 -1.291145672827041 C 0.7894851707280413 -1.2936918601812877 0.7900567205915264 -1.2963948147440192 0.7916803907121327 -1.2984605513529153 C 0.7936943991168338 -1.30099014590922 0.7971262694384446 -1.3024402319606048 0.8010898379788963 -1.3024402319606048 L 1.0268360120450326 -1.3024402319606048 C 1.0298682671693062 -1.3024878010411045 1.0327826700266942 -1.3012671393232806 1.0348759335965996 -1.2990728099079445 C 1.0366374648845076 -1.2971978847508048 1.0375114110073893 -1.2946581621252502 1.0372766316150033 -1.2920962847940598 Z M 1.3983641704770533 -1.291145672827041 L 1.3773056985974985 -1.2000319325983635 C 1.3761939659581035 -1.1952144244943184 1.3699747080043865 -1.1915086490296685 1.3634332087059173 -1.1917825541727076 L 1.1688799968117916 -1.1997096912536112 C 1.163385781883767 -1.1999352601949378 1.1586166099814348 -1.2036893718613006 1.1582621445022074 -1.2081040782844052 L 1.1512211711193723 -1.2920962847940598 C 1.1509947462503267 -1.2946571478323157 1.151867547448458 -1.2971935432604418 1.153621869137776 -1.2990728099079445 C 1.1557151327076813 -1.3012671393232806 1.1586295355650693 -1.3024878010411045 1.1616617906893427 -1.3024402319606048 L 1.3874079647554791 -1.3024402319606048 C 1.3913715332959309 -1.3024402319606048 1.3948034036175414 -1.30099014590922 1.3968174120222425 -1.2984605513529153 C 1.398441082142849 -1.2963948147440192 1.3990126320063343 -1.2936918601812877 1.3983641704770533 -1.291145672827041" fill="#515254" transform="matrix(1,0,0,1,0,0)" fill-rule="nonzero"></path></g><g clip-path="url(#b1a728b99-aea9-4d66-a330-f0966c033bb725cc5783-35d4-42cb-a410-2714a5a8d43b)"><path d=" M 1.4190037286084298 -1.7153925152605174 C 1.3777407244129138 -1.7436853053297583 1.3126479727729743 -1.7810008530520602 1.2158950090111338 -1.7938099465059592 C 1.173842513520975 -1.7993686097029342 0.8595444179169407 -1.826227425788028 0.822631671875579 -1.8052978504463741 C 0.7177098900242707 -1.7457637620034099 0.7183060365120622 -1.6407130836142008 0.7183060365120622 -1.6407130836142008 C 0.7183060365120622 -1.6407130836142008 0.6917533497044829 -1.6235859561406225 0.6962002802620629 -1.582870762231185 C 0.7047719000324707 -1.504469443052981 0.7081070979506557 -1.3840317404518554 0.7547193084690579 -1.2800766826348038 C 0.7630814713653769 -1.2614027967064152 0.7400734393500716 -1.3397235555484315 0.7624692128103477 -1.3946979289631525 C 0.7813042194111124 -1.440923449867852 0.8160579484426345 -1.5231111048468944 0.8327339380335596 -1.562456773041135 C 0.8381409587360341 -1.575255941180921 0.8519689885502384 -1.5823127233574916 0.8655058827948557 -1.579181098833773 C 0.9186273684772518 -1.5669520398004277 1.270321572139776 -1.5669520398004277 1.323443057822172 -1.579181098833773 C 1.3369799520667893 -1.5823127233574916 1.3508079818809937 -1.5752559411809213 1.3562150025834683 -1.562456773041135 C 1.3728909921743933 -1.5231111048468944 1.4076447212059156 -1.440923449867852 1.42647972780668 -1.3946979289631525 C 1.4488755012669563 -1.3397235555484315 1.4258674692516509 -1.2614027967064152 1.43422963214797 -1.2800766826348038 C 1.480841842666372 -1.3840317404518554 1.4841770405845571 -1.504469443052981 1.492748660354965 -1.582870762231185 C 1.4971955909125452 -1.6235859561406225 1.455400888498188 -1.6904188110422238 1.4190037286084298 -1.7153925152605174" fill="#915121" transform="matrix(1,0,0,1,0,0)" fill-rule="nonzero"></path></g><g clip-path="url(#SvgjsClipPath100025cc5783-35d4-42cb-a410-2714a5a8d43b)"><path d=" M 1.9131007987650503 -1.9471487052612353 L 1.7237356725214346 -1.757799691084857 L 1.6875318574385278 -1.794003506167764 L 1.8768969836821436 -1.9833525203441422 Z" fill="#45ba3b" transform="matrix(1,0,0,1,0,0)" fill-rule="nonzero"></path></g><g clip-path="url(#SvgjsClipPath100025cc5783-35d4-42cb-a410-2714a5a8d43b)"><path d=" M 1.7175441217936913 -1.7639902950248827 L 1.6172948394412894 -1.8642395773772844 L 1.653514766591434 -1.9004433924601913 L 1.753747936876598 -1.8001941101077896 Z" fill="#45ba3b" transform="matrix(1,0,0,1,0,0)" fill-rule="nonzero"></path></g></g></g><defs><clipPath id="SvgjsClipPath1006"><path d=" M 0.1466015547199906 -2.145294693294394 h 1.8952946932943942 v 1.8952946932943942 h -1.8952946932943942 Z"></path></clipPath><clipPath id="a1a728b99-aea9-4d66-a330-f0966c033bb725cc5783-35d4-42cb-a410-2714a5a8d43b"><path d=" M 0.1466015547199906 -0.2500000000000002 L 2.0418962480143845 -0.2500000000000002 L 2.0418962480143845 -2.1452946932943946 L 0.1466015547199906 -2.1452946932943946 Z"></path></clipPath><clipPath id="SvgjsClipPath100025cc5783-35d4-42cb-a410-2714a5a8d43b"><path d=" M 0.1466015547199906 -2.145294693294394 L 2.0418962480143845 -2.145294693294394 L 2.0418962480143845 -0.25 L 0.1466015547199906 -0.25 Z"></path></clipPath><clipPath id="b1a728b99-aea9-4d66-a330-f0966c033bb725cc5783-35d4-42cb-a410-2714a5a8d43b"><path d=" M 0.1466015547199906 -0.2500000000000002 L 2.0418962480143845 -0.2500000000000002 L 2.0418962480143845 -2.1452946932943946 L 0.1466015547199906 -2.1452946932943946 Z"></path></clipPath></defs></svg>